<svg id="Layer_1" data-name="Layer 1" xmlns="http://www.w3.org/2000/svg" viewBox="0 0 482.03 312.28"><defs><style>.cls-1{fill:#fff;}</style></defs><title>gridlight</title><g id="Component_7_1" data-name="Component 7 1"><path id="Path_13" data-name="Path 13" class="cls-1" d="M41.66,236.46h75.09c22.46,0,33.69-11.23,33.69-34.41V128.38C150.44,105,139.21,94,116.75,94H41.66C19.2,94,8,105,8,128.38V202C8,225.23,19.19,236.46,41.66,236.46Zm169.78,0h75.09c22.46,0,33.69-11.23,33.69-34.41V128.38C320.22,105,309,94,286.53,94H211.45c-22.46,0-33.69,11-33.69,34.41V202c0,23.19,11.21,34.42,33.69,34.42Zm169.78,0h75.09c22.46,0,33.69-11.23,33.69-34.41V128.38C490,105,478.77,94,456.31,94H381.23c-22.46,0-33.69,11-33.69,34.41V202c0,23.19,11.22,34.42,33.69,34.42ZM41.66,406.25h75.09c22.46,0,33.69-11.23,33.69-34.42V298.17c0-23.36-11.23-34.42-33.69-34.42H41.66C19.2,263.75,8,274.81,8,298.17v73.66C8,395,19.19,406.25,41.66,406.25Zm169.78,0h75.09c22.46,0,33.69-11.23,33.69-34.42V298.17c0-23.36-11.23-34.42-33.69-34.42H211.45c-22.46,0-33.69,11.06-33.69,34.42v73.66c0,23.18,11.21,34.42,33.69,34.42Zm169.78,0h75.09c22.46,0,33.69-11.23,33.69-34.42V298.17c0-23.36-11.23-34.42-33.69-34.42H381.23c-22.46,0-33.69,11.06-33.69,34.42v73.66c0,23.18,11.22,34.42,33.69,34.42Z" transform="translate(-7.97 -93.97)"/></g></svg>