<svg id="Layer_1" data-name="Layer 1" xmlns="http://www.w3.org/2000/svg" viewBox="0 0 466.03 339.21"><defs><style>.cls-1{fill:#fff;}</style></defs><title>listlight</title><path id="Path_15" data-name="Path 15" class="cls-1" d="M46,140.64A30.07,30.07,0,1,0,16,110.57h0A30.12,30.12,0,0,0,46,140.64Zm103.54-10.43H462.35a19.64,19.64,0,0,0,0-39.28H149.57a19.64,19.64,0,1,0,0,39.28ZM46,280.05A30.07,30.07,0,1,0,16,250h0A30.1,30.1,0,0,0,46,280.05Zm103.54-10.43H462.35a19.64,19.64,0,0,0,0-39.28H149.57a19.64,19.64,0,1,0,0,39.28ZM46,419.71A30.19,30.19,0,1,0,16,389.4,30.2,30.2,0,0,0,46,419.71Zm103.54-10.66H462.35a19.64,19.64,0,0,0,0-39.27H149.57a19.64,19.64,0,1,0,0,39.27Z" transform="translate(-15.97 -80.5)"/></svg>