<svg id="Layer_1" data-name="Layer 1" xmlns="http://www.w3.org/2000/svg" viewBox="0 0 462.72 483.78"><defs><style>.cls-1{fill:#fff;}</style></defs><title>moon</title><path id="Path_4" data-name="Path 4" class="cls-1" d="M282.14,120a4.75,4.75,0,0,0,4.84-4.35c7-38.24,6.77-39,46.47-46.47a5.14,5.14,0,0,0,0-10.16c-39.69-8-39.45-8.47-46.47-46.23a5,5,0,0,0-4.84-4.59,5,5,0,0,0-5.08,4.59c-7,37.76-6.53,38.48-46.47,46.23a5.14,5.14,0,0,0,0,10.16c39.93,7.51,39.45,8.47,46.47,46.47A4.82,4.82,0,0,0,282.14,120ZM391.77,275.88a7.84,7.84,0,0,0,8-7.68v-.06c7.48-61,10.4-62.68,72.36-72.6,5.08-.72,8.22-3.39,8.22-8a8.1,8.1,0,0,0-7.26-8C410.65,167.47,407.24,168,399.76,107a7.84,7.84,0,0,0-7.92-7.74h-.07a8.16,8.16,0,0,0-8.23,7.5c-7.75,62-9.92,63.89-73.09,72.84a7.76,7.76,0,0,0-7.26,8,7.91,7.91,0,0,0,7.26,8c63.4,12.1,65.32,12.1,73.09,73.09a8.15,8.15,0,0,0,8.23,7.26ZM218,492c83.49,0,150.77-43.08,182.71-114.7,4.12-8.95,3.39-16.7-1-20.81a16.84,16.84,0,0,0-18.15-1.21,183.29,183.29,0,0,1-66.07,11.13c-103.58,0-170.13-64.86-170.13-165.77,0-29,5.8-57.1,13.07-71.88,4.11-8.47,4.11-15.73.24-20.32-4.12-4.84-11.86-5.57-21.54-1.94C65.79,134.8,17.62,210.06,17.62,294.76,17.62,407.78,101.12,492,218,492Z" transform="translate(-17.62 -8.22)"/></svg>